<svg xmlns="http://www.w3.org/2000/svg" width="44" height="44" viewBox="0 0 44 44">
  <path fill="#f0f3f6" transform="translate(2 2) scale(1.6667)" d="M12 .3a12 12 0 0 0-3.8 23.4c.6.1.8-.3.8-.6v-2.1c-3.3.7-4-1.4-4-1.4-.5-1.4-1.3-1.8-1.3-1.8-1.1-.7.1-.7.1-.7 1.2.1 1.8 1.2 1.8 1.2 1.1 1.8 2.8 1.3 3.5 1 .1-.8.4-1.3.8-1.6-2.7-.3-5.5-1.3-5.5-5.9 0-1.3.5-2.4 1.2-3.2-.1-.3-.5-1.5.1-3.2 0 0 1-.3 3.3 1.2a11.5 11.5 0 0 1 6 0C16.3 4.6 17.3 5 17.3 5c.7 1.7.3 2.9.1 3.2.8.8 1.2 1.9 1.2 3.2 0 4.6-2.8 5.6-5.5 5.9.4.4.8 1.1.8 2.2v3.3c0 .3.2.7.8.6A12 12 0 0 0 12 .3z"/>
  <circle cx="35" cy="34" r="9.5" fill="#3fb950"/>
</svg>
